<mxfile host="app.diagrams.net" agent="Mozilla/5.0 (X11; Linux x86_64) AppleWebKit/537.36 (KHTML, like Gecko) Chrome/131.0.0.0 Safari/537.36" version="25.0.1">
  <diagram name="Page-1" id="qGHYASbo4h0j2s2UQ7R0">
    <mxGraphModel dx="989" dy="520" grid="1" gridSize="10" guides="1" tooltips="1" connect="1" arrows="1" fold="1" page="1" pageScale="1" pageWidth="850" pageHeight="1100" math="0" shadow="0">
      <root>
        <mxCell id="0" />
        <mxCell id="1" parent="0" />
        <mxCell id="aeV8_uj1eHOTyjAemC0K-2" value="" style="sketch=0;aspect=fixed;pointerEvents=1;shadow=0;dashed=0;html=1;strokeColor=none;labelPosition=center;verticalLabelPosition=bottom;verticalAlign=top;align=center;fillColor=#00188D;shape=mxgraph.azure.laptop" vertex="1" parent="1">
          <mxGeometry x="40" y="70" width="50" height="30" as="geometry" />
        </mxCell>
        <mxCell id="aeV8_uj1eHOTyjAemC0K-3" value="Authentication Filter" style="rounded=0;whiteSpace=wrap;html=1;fillColor=#EE230B;strokeColor=#b85450;fontColor=#FFFFFF;" vertex="1" parent="1">
          <mxGeometry x="180" y="70" width="120" height="30" as="geometry" />
        </mxCell>
        <mxCell id="aeV8_uj1eHOTyjAemC0K-4" value="Authentication Manager" style="rounded=0;whiteSpace=wrap;html=1;fillColor=#61D836;strokeColor=#b85450;fontColor=#FFFFFF;" vertex="1" parent="1">
          <mxGeometry x="390" y="70" width="135" height="30" as="geometry" />
        </mxCell>
        <mxCell id="aeV8_uj1eHOTyjAemC0K-5" value="Authentication Provider" style="rounded=0;whiteSpace=wrap;html=1;fillColor=#F8B900;strokeColor=#b85450;fontColor=#FFFFFF;" vertex="1" parent="1">
          <mxGeometry x="616" y="70" width="135" height="30" as="geometry" />
        </mxCell>
        <mxCell id="aeV8_uj1eHOTyjAemC0K-7" value="Security Context" style="rounded=0;whiteSpace=wrap;html=1;fillColor=#00A2FF;strokeColor=#b85450;fontColor=#FFFFFF;" vertex="1" parent="1">
          <mxGeometry x="75" y="200" width="120" height="30" as="geometry" />
        </mxCell>
        <mxCell id="aeV8_uj1eHOTyjAemC0K-8" value="&lt;b&gt;AuthenticationFailureHandler&lt;/b&gt;" style="text;html=1;align=center;verticalAlign=middle;resizable=0;points=[];autosize=1;strokeColor=none;fillColor=none;" vertex="1" parent="1">
          <mxGeometry x="235" y="200" width="190" height="30" as="geometry" />
        </mxCell>
        <mxCell id="aeV8_uj1eHOTyjAemC0K-9" value="UserDetails&lt;div&gt;Service&lt;/div&gt;" style="rounded=0;whiteSpace=wrap;html=1;fillColor=#EF5FA7;strokeColor=#b85450;fontColor=#FFFFFF;" vertex="1" parent="1">
          <mxGeometry x="510" y="220" width="120" height="40" as="geometry" />
        </mxCell>
        <mxCell id="aeV8_uj1eHOTyjAemC0K-10" value="Password&lt;div&gt;Encoder&lt;/div&gt;" style="rounded=0;whiteSpace=wrap;html=1;fillColor=#000000;strokeColor=#b85450;fontColor=#FFFFFF;" vertex="1" parent="1">
          <mxGeometry x="690" y="220" width="120" height="40" as="geometry" />
        </mxCell>
        <mxCell id="aeV8_uj1eHOTyjAemC0K-11" value="" style="endArrow=classic;html=1;rounded=0;" edge="1" parent="1">
          <mxGeometry width="50" height="50" relative="1" as="geometry">
            <mxPoint x="210" y="110" as="sourcePoint" />
            <mxPoint x="140" y="200" as="targetPoint" />
          </mxGeometry>
        </mxCell>
        <mxCell id="aeV8_uj1eHOTyjAemC0K-12" value="" style="endArrow=classic;html=1;rounded=0;" edge="1" parent="1">
          <mxGeometry width="50" height="50" relative="1" as="geometry">
            <mxPoint x="260" y="110" as="sourcePoint" />
            <mxPoint x="320" y="200" as="targetPoint" />
          </mxGeometry>
        </mxCell>
        <mxCell id="aeV8_uj1eHOTyjAemC0K-13" value="" style="endArrow=classic;html=1;rounded=0;entryX=0.543;entryY=-0.034;entryDx=0;entryDy=0;entryPerimeter=0;" edge="1" parent="1" target="aeV8_uj1eHOTyjAemC0K-9">
          <mxGeometry width="50" height="50" relative="1" as="geometry">
            <mxPoint x="660" y="110" as="sourcePoint" />
            <mxPoint x="460" y="240" as="targetPoint" />
          </mxGeometry>
        </mxCell>
        <mxCell id="aeV8_uj1eHOTyjAemC0K-14" value="" style="endArrow=classic;html=1;rounded=0;entryX=0.5;entryY=0;entryDx=0;entryDy=0;" edge="1" parent="1" target="aeV8_uj1eHOTyjAemC0K-10">
          <mxGeometry width="50" height="50" relative="1" as="geometry">
            <mxPoint x="680" y="110" as="sourcePoint" />
            <mxPoint x="460" y="240" as="targetPoint" />
          </mxGeometry>
        </mxCell>
        <mxCell id="aeV8_uj1eHOTyjAemC0K-15" value="" style="endArrow=classic;html=1;rounded=0;" edge="1" parent="1">
          <mxGeometry width="50" height="50" relative="1" as="geometry">
            <mxPoint x="94" y="77" as="sourcePoint" />
            <mxPoint x="174" y="77" as="targetPoint" />
          </mxGeometry>
        </mxCell>
        <mxCell id="aeV8_uj1eHOTyjAemC0K-16" value="" style="endArrow=classic;html=1;rounded=0;" edge="1" parent="1">
          <mxGeometry width="50" height="50" relative="1" as="geometry">
            <mxPoint x="175" y="94" as="sourcePoint" />
            <mxPoint x="95" y="94" as="targetPoint" />
          </mxGeometry>
        </mxCell>
        <mxCell id="aeV8_uj1eHOTyjAemC0K-17" value="" style="endArrow=classic;html=1;rounded=0;" edge="1" parent="1">
          <mxGeometry width="50" height="50" relative="1" as="geometry">
            <mxPoint x="304" y="77" as="sourcePoint" />
            <mxPoint x="384" y="77" as="targetPoint" />
          </mxGeometry>
        </mxCell>
        <mxCell id="aeV8_uj1eHOTyjAemC0K-18" value="" style="endArrow=classic;html=1;rounded=0;" edge="1" parent="1">
          <mxGeometry width="50" height="50" relative="1" as="geometry">
            <mxPoint x="385" y="94" as="sourcePoint" />
            <mxPoint x="305" y="94" as="targetPoint" />
          </mxGeometry>
        </mxCell>
        <mxCell id="aeV8_uj1eHOTyjAemC0K-19" value="" style="endArrow=classic;html=1;rounded=0;" edge="1" parent="1">
          <mxGeometry width="50" height="50" relative="1" as="geometry">
            <mxPoint x="530" y="76" as="sourcePoint" />
            <mxPoint x="610" y="76" as="targetPoint" />
          </mxGeometry>
        </mxCell>
        <mxCell id="aeV8_uj1eHOTyjAemC0K-20" value="" style="endArrow=classic;html=1;rounded=0;" edge="1" parent="1">
          <mxGeometry width="50" height="50" relative="1" as="geometry">
            <mxPoint x="611" y="93" as="sourcePoint" />
            <mxPoint x="531" y="93" as="targetPoint" />
          </mxGeometry>
        </mxCell>
        <mxCell id="aeV8_uj1eHOTyjAemC0K-21" value="&lt;b&gt;AuthenticationSuccessHandler&lt;/b&gt;" style="text;html=1;align=center;verticalAlign=middle;resizable=0;points=[];autosize=1;strokeColor=none;fillColor=none;" vertex="1" parent="1">
          <mxGeometry x="75" y="140" width="200" height="30" as="geometry" />
        </mxCell>
      </root>
    </mxGraphModel>
  </diagram>
</mxfile>
